<svg id="Layer_1" data-name="Layer 1" xmlns="http://www.w3.org/2000/svg" viewBox="0 0 177.35 244.25"><title>ghost</title><g id="dkU1zf"><path d="M.34,163q0-18.31,0-36.62A252.91,252.91,0,0,1,2.15,97.53,180,180,0,0,1,9.94,61.26c3.71-11.09,8.64-21.58,15.69-31C35,17.87,46.85,8.91,61.74,4.08A89.23,89.23,0,0,1,94.6.17,82.43,82.43,0,0,1,118,4.77a70.65,70.65,0,0,1,24.69,15.1c8.68,8.13,15.06,17.85,20,28.61a142.48,142.48,0,0,1,9.28,28.18,210.93,210.93,0,0,1,4.81,35.73c.32,6.49.57,13,.59,19.5.07,21.61,0,43.22,0,64.83a160.79,160.79,0,0,1-1.09,22.16c-.73,5.22-1.86,10.31-4.44,15-3.31,6-8.46,9.17-15.1,10.08a27.72,27.72,0,0,1-10.42-.42c-4.89-1.19-8.44-4.18-11.42-8.05-1.4-1.84-2.82-3.69-4.38-5.39a11.11,11.11,0,0,0-7.82-3.48c-3.67-.22-7.33-.21-10.39,2.16a30.66,30.66,0,0,0-4,4.08c-1.93,2.19-3.63,4.61-5.72,6.63a17.63,17.63,0,0,1-11.16,4.64c-5.14.43-10.07-.2-14.49-3.14a28.3,28.3,0,0,1-6.8-7.09c-1.62-2.18-3.22-4.41-5.7-5.76a15.33,15.33,0,0,0-19.49,4.44,70.68,70.68,0,0,1-5.11,6.2A17.76,17.76,0,0,1,28.93,244a29.27,29.27,0,0,1-10.3-.48c-6.92-1.57-11.4-5.91-14.1-12.29A46,46,0,0,1,1,214.37C.51,197.25.3,180.13,0,163Zm7.47-2.3H7.67c0,5.33,0,10.66,0,16,.12,12.28-.45,24.58.55,36.84a48.19,48.19,0,0,0,2.89,14.28,15.67,15.67,0,0,0,3.69,5.68c2.63,2.46,5.88,3.23,9.31,3.37,3.06.12,6.26.08,8.75-1.93a29.34,29.34,0,0,0,5.29-5.67c4.34-6.09,9.88-9.87,17.57-10.11,7.09-.23,13.27,1.65,17.89,7.34,1.54,1.9,3,3.87,4.54,5.74,3.92,4.72,12.1,6.17,17.5,3.21,2.67-1.47,4.42-3.81,6.1-6.2,4.18-6,9.58-9.74,17.07-10.06,5.61-.24,10.94.6,15.33,4.38a63.72,63.72,0,0,1,5.24,5.74c1.75,1.9,3.32,4.05,5.35,5.61,2.93,2.26,6.56,2.14,10.08,1.84a12.94,12.94,0,0,0,7.3-2.76c3.42-2.78,4.85-6.7,5.78-10.75a89.93,89.93,0,0,0,2-20.11q.07-34.42,0-68.86c0-6.51,0-13-.34-19.52a227.26,227.26,0,0,0-4-33.27c-3.1-15.15-7.81-29.68-16.31-42.76A69.64,69.64,0,0,0,132.8,20.85,64.66,64.66,0,0,0,103.66,8.56a86.32,86.32,0,0,0-37.82,1.87,63.51,63.51,0,0,0-27.42,16c-8.59,8.44-14.53,18.6-19,29.68a157.21,157.21,0,0,0-9.26,36.28,210.5,210.5,0,0,0-2.33,27.69C7.7,133.6,7.81,147.15,7.81,160.7Z"/><path d="M74.69,77.11A28.39,28.39,0,0,1,69.5,94.2c-2.81,3.89-6.44,6.63-11.37,7.23A14.23,14.23,0,0,1,46.6,97.56a24.48,24.48,0,0,1-7.36-13A31,31,0,0,1,40,67c1.9-5.6,5-10.34,10.54-13a14,14,0,0,1,15.94,2.59Q74.66,64.3,74.69,77.11Z"/><path d="M139.34,77.46c-.35,6.43-1.92,12.82-6.44,18.24-5.06,6.08-13.12,7.63-19.47,3.57-4.66-3-7.44-7.4-9.05-12.59a31.22,31.22,0,0,1,.77-21.37c1.91-4.81,4.9-8.84,9.64-11.19,6.6-3.27,14-1.13,18.86,5.25C137.6,64.61,139.14,70.6,139.34,77.46Z"/><path d="M96.87,121.75A19.25,19.25,0,0,1,93.94,133a9.18,9.18,0,0,1-1.16,1.4c-2.78,2.7-6.12,2.43-8.53-.62A17,17,0,0,1,80.88,125a22.7,22.7,0,0,1,1.91-13.19c1-2.07,2.42-3.9,4.8-4.57,2.2-.61,4.56.52,6.15,2.79a18.72,18.72,0,0,1,3.12,9.37C96.92,120.2,96.87,121,96.87,121.75Z"/><path d="M70.53,34.44a36.33,36.33,0,0,0-20.84,4A43.27,43.27,0,0,0,34.27,53L34,52.87a20,20,0,0,1,0-2.79A22.32,22.32,0,0,1,42.86,35.2c6.34-4.93,13.5-6.67,21.33-4.59,2.06.55,3.92,1.89,5.85,2.89.23.12.38.38.57.57Z"/><path d="M143.55,53c-8.86-12.71-20.51-19.79-36.8-18.51a12.45,12.45,0,0,1,1.15-1.19,18.22,18.22,0,0,1,9.5-3.41,25.1,25.1,0,0,1,25.23,16A14.13,14.13,0,0,1,143.55,53Z"/></g></svg>